<?xml version="1.0" encoding="UTF-8"?>
<svg id="Ebene_1" xmlns="http://www.w3.org/2000/svg" version="1.1" viewBox="0 0 512 512">
  <!-- Generator: Adobe Illustrator 29.1.0, SVG Export Plug-In . SVG Version: 2.1.0 Build 142)  -->
  <defs>
    <style>
      .st0 {
        fill: #1e2826;
      }
    </style>
  </defs>
  <polygon class="st0" points="324.9 179.4 324.9 68.2 296.5 68.2 55.1 303.6 53.9 304.8 53.9 303.9 21.4 335.6 21.4 443.8 53.9 443.8 187.7 313.7 324.9 179.4"/>
  <path class="st0" d="M490.6,68.2v111.2l-137.3,134.3-45.9,44.9-87.2,85.2h-32.5v-106l52.9-53.1c17.6-17.2,36.6-35.7,57.1-55.7,28.8-28,57.8-56.4,87.2-85.1,29.4-28.8,55.1-54,77.2-75.7h28.4Z"/>
  <polygon class="st0" points="353.3 335.6 353.3 443.8 385.8 443.8 490.6 341.5 490.6 202.5 353.3 335.6"/>
</svg>